<?xml version="1.0" encoding="utf-8"?>
<!-- Generator: Adobe Illustrator 28.1.0, SVG Export Plug-In . SVG Version: 6.00 Build 0)  -->
<svg version="1.0" id="katman_1" xmlns="http://www.w3.org/2000/svg" xmlns:xlink="http://www.w3.org/1999/xlink" x="0px" y="0px"
	 viewBox="0 0 779 776.07" style="enable-background:new 0 0 779 776.07;" xml:space="preserve">
<style type="text/css">
	.st0{fill:#0F140E;}
	.st1{fill:#FDFFFE;}
</style>
<path class="st0" d="M69.11,310.37c7.51-28.68,16.75-54.93,30.67-80.26c1.01-1.85,1.92-3.7,2.75-5.57c0.12-0.28,0.05-0.6-0.17-0.81
	c-1.73-1.62-3.43-3.12-5.08-4.51c-10.45-8.73-20.56-16.98-30.33-24.75c-2.23-1.77-4.21-3.92-5.94-6.44
	c-3.24-4.7-1.78-11.71,1.34-16.11c21.4-30.17,45.11-57.63,71.12-82.37c2.68-2.55,6.65-5.95,10.03-6.87
	c5.14-1.4,8.35,0.16,12.39,2.84c13.91,9.27,28.25,18.75,43.02,28.44c0.71,0.46,1.63,0.46,2.35,0c21.45-13.89,44.19-25.4,68.2-34.52
	c12.63-4.79,25.19-9.05,37.68-12.76c0.63-0.19,1.11-0.71,1.25-1.36c3.83-18.43,8.06-36.56,12.69-54.37
	c1.86-7.13,7.55-10.96,14.68-10.95c36.03,0.08,70.81,0.09,104.33,0.03c5.61-0.01,12.26,2.33,14.5,7.91
	c1.89,4.72,2.89,9.58,4.12,14.55c3.64,14.74,7.09,29.13,10.36,43.16c0.17,0.73,0.72,1.31,1.43,1.53l9.15,2.82
	c0.5,0.15,0.52,0.36,0.06,0.62c-9.67,5.41-20.1,12.23-28.32,19.37c-14.72,12.77-26.05,28.25-35.53,45.74
	c-0.24,0.45-0.76,0.68-1.26,0.55c-1.64-0.43-3.3-0.91-5.01-0.94c-3.24-0.05-6.11-0.89-9.41-0.97c-2.33-0.05-4.7-0.16-7.11-0.33
	c-4.31-0.31-8.93-0.33-13.87-0.07c-3.91,0.21-8.64,0.51-14.17,0.88c-21.18,1.45-41.92,5.88-62.21,13.29
	c-0.33,0.13-0.68,0.15-1.03,0.06c-1.86-0.44-3.62-1.3-5.5-1.83c-14.53-4.05-28.81-3.78-42.85,0.81
	c-13.24,4.33-22.41,12.36-31.83,22.41c-11.15,11.9-22.35,23.95-33.6,36.15c-3.65,3.96-7.62,8.35-10.46,12.48
	c-11.07,16.09-14.66,34.06-10.75,53.89c0.14,0.73,0.04,1.48-0.29,2.14c-15.75,31.41-24.26,65.16-26.56,99.86
	c-0.52,7.76-0.35,15.48-0.16,23.24c0.45,18.91,3.24,38.26,8.37,58.03c2.9,11.18,6.8,21.43,11.32,31.9
	c8.16,18.91,18.3,36.25,30.41,52.03c4.02,5.24,8.23,10.41,12.64,15.51c0.16,0.18,0.16,0.44,0.01,0.62
	c-8.25,10.25-16.82,20.49-25.71,30.74c-7.24,8.34-13.38,15.98-20.08,24.29c-0.19,0.24-0.66,0.56-1.4,0.97
	c-0.46,0.25-0.95,0.44-1.46,0.58c-23.14,6.01-42.89,19.05-56.31,39.18c-0.41,0.61-0.84,0.64-1.31,0.07
	c-2.59-3.15-5.28-6.34-8.07-9.57c-9.1-10.52-17.82-21.75-26.17-33.69c-2.87-4.11-3.5-9.07-1.88-14.88c0.38-1.38,2.13-3.38,5.25-5.99
	c11.9-9.97,22.73-19.14,32.49-27.53c1.43-1.23,2.73-2.53,3.9-3.9c0.22-0.26,0.27-0.55,0.14-0.86c-0.58-1.43-1.24-2.85-1.98-4.28
	c-9.11-17.57-16.7-35.96-22.76-55.18c-2.88-9.14-5.64-18.48-8.29-28.03c-0.06-0.21-0.2-0.34-0.42-0.39
	c-19.27-4.07-38.68-8.44-58.22-13.13c-6.76-1.63-10.15-6.19-10.17-13.68c-0.11-33.46-0.12-67.74-0.03-102.83
	c0.03-8.5,6.05-11.84,13.32-13.57c17.13-4.09,35.44-8.3,54.94-12.63C68.74,311.04,69,310.78,69.11,310.37z"/>
<path class="st0" d="M631.98,248.78c1.2-1.21,2.42-2.52,3.65-3.92c11.35-12.88,22.28-25.06,32.81-36.55
	c13.37-14.6,25.99-29.32,39.55-44.35c0.77-0.86,1.61-1.62,2.51-2.27c0.27-0.2,0.66-0.05,0.74,0.28c3.25,13.5,4.21,27.23,2.9,41.19
	c-3.36,35.71-16.83,66.42-40.4,92.13c-10.43,11.37-23.5,21.26-36.88,27.7c-12.27,5.91-23.56,10.07-33.87,12.48
	c-10.97,2.55-22.14,5.09-33.53,7.62c-5.6,1.25-11.86,3.14-18.79,5.67c-17.9,6.56-33.26,16.47-46.75,30.33
	c-4.83,4.96-9.27,9.89-13.32,14.78c-70.5,85.15-147.51,179.46-231.02,282.95c-5.34,6.61-11.3,13.37-13.16,22.12
	c-0.91,4.33-1.92,8.63-3.01,12.88c-2.49,9.73-7.52,19.75-13.86,27.39c-12.7,15.31-29.47,23.53-50.31,24.64
	c-21.42,1.14-41.7-7.71-55.07-24.11c-7.74-9.51-13.19-20.91-14.8-33.2c-4.25-32.43,12.35-61.31,43.67-71.74
	c5.74-1.91,10.9-4.42,16.01-7.58c3.78-2.34,6.77-5.93,9.63-9.3c17.67-20.79,35.52-41.65,53.57-62.58
	c4.31-5.01,8.64-10.08,12.98-15.21c28.54-33.77,54.15-63.9,76.82-90.37c18.31-21.38,37.36-43.57,57.15-66.56
	c12.19-14.15,24.41-28.11,36.08-42.39c4-4.89,7.84-11.55,10.25-17.76c10.22-26.42,9.74-55.92,3.13-83.48
	c-3.21-13.38-5.05-26.56-5.54-39.55c-0.17-4.38,0.02-8.58,0.56-12.61c0.78-5.83,1.33-11.68,2.77-17.37
	c16.32-64.47,76.52-98.01,139.04-105.77c9.14-1.14,18.57-0.53,28.04-0.64c0.5,0,0.78,0.59,0.45,0.97c-0.89,1.03-1.8,2.08-2.74,3.13
	c-17.51,19.5-36.42,40.67-56.74,63.5c-1.93,2.17-3.95,4.52-6.05,7.05c-0.5,0.61-0.78,1.37-0.79,2.15l-0.25,16.4
	c-0.02,0.98,0.4,1.92,1.14,2.56l102.75,89.42C631.53,249.02,631.76,249.01,631.98,248.78z M517.56,217.55
	c0.32-0.39,0.27-0.96-0.11-1.28l-10.1-8.5c-0.38-0.32-0.95-0.27-1.28,0.11l-45.94,53.92c-0.32,0.38-0.28,0.95,0.1,1.28l10.4,9.02
	c0.38,0.34,0.97,0.29,1.29-0.1L517.56,217.55z M540.1,236.74c0.24-0.28,0.21-0.7-0.08-0.94l-10.51-8.88
	c-0.28-0.24-0.7-0.21-0.94,0.08l-46.07,54.52c-0.24,0.28-0.21,0.7,0.08,0.94l10.51,8.88c0.28,0.24,0.7,0.21,0.94-0.08L540.1,236.74z
	 M562.89,255.23c0.12-0.14,0.1-0.35-0.04-0.46l-11.12-9.3c-0.14-0.12-0.35-0.1-0.46,0.04l-46.92,56.11
	c-0.12,0.14-0.1,0.35,0.04,0.46l11.12,9.3c0.14,0.12,0.35,0.1,0.46-0.04L562.89,255.23z M584.63,275.42
	c0.25-0.29,0.22-0.73-0.08-0.97l-10.3-8.79c-0.29-0.24-0.73-0.21-0.97,0.08l-46.76,54.75c-0.25,0.29-0.22,0.73,0.08,0.97l10.3,8.79
	c0.29,0.24,0.73,0.21,0.97-0.08L584.63,275.42z M474.12,344.43c7.45,6.64,3.23,16.64-2.36,22.57c-2.45,2.61-2.1,3.06,1.05,1.37
	c7.75-4.16,13.81-10.2,14.96-19.36c0.63-4.98-0.91-9.69-4.61-14.14c-8.61-10.38-24.42-9.77-33.18,0.15
	c-4.21,4.78-8.74,10.34-13.61,16.69c-18.78,24.54-35.76,47.28-50.94,68.21c-0.45,0.61-0.33,1.1,0.34,1.45
	c0.28,0.15,0.58,0.24,0.9,0.28c0.8,0.09,1.6-0.21,2.13-0.82c11.85-13.45,23.49-26.67,34.92-39.65c8.13-9.24,16.23-19.11,24.7-29.06
	c5.08-5.96,9.49-11.45,18.16-10.79C469.53,341.55,472.05,342.58,474.12,344.43z M147.91,652.61c-17.47,9.33-26.59,29.12-25.47,48.78
	c0.05,0.87,0.51,1.35,1.37,1.46l1.47,0.17c0.93,0.11,1.42-0.3,1.45-1.24c0.51-13.97,5.02-25.61,13.53-34.94
	c9.22-10.09,20.16-13.83,33.21-16.2c0.36-0.06,0.56-0.27,0.61-0.64c0.25-1.75-0.31-2.7-1.68-2.83
	C164.33,646.39,156.16,648.2,147.91,652.61z M212.52,698.59c0-19.71-15.98-35.69-35.69-35.69s-35.69,15.98-35.69,35.69
	c0,19.71,15.98,35.69,35.69,35.69S212.52,718.3,212.52,698.59z"/>
<path class="st0" d="M339.63,297.37l-9.36,10.9c-0.49,0.57-0.51,1.41-0.05,2c1.61,2.06,3.32,3.92,5.14,5.57
	c13.93,12.67,27.33,25.07,40.18,37.21c0.31,0.29,0.3,0.58-0.03,0.85c-0.69,0.55-1.3,1.14-1.85,1.77
	c-9.1,10.47-17.83,20.53-26.18,30.2c-0.45,0.52-0.91,0.53-1.38,0.03c-7.92-8.43-16.08-17.47-24.49-27.12
	c-8.18-9.39-18.04-16.13-29.59-20.24c-6.7-2.38-14.52-3.74-23.46-4.09c-5.43-0.21-10.71-0.63-15.84-1.25
	c-7.69-0.93-15.59-3.26-23.7-6.97c-27.64-12.65-45.77-43.63-41.17-74.26c0.45-2.95,1.52-5.77,1.83-8.77c0.04-0.4,0.5-0.62,0.83-0.39
	c0.95,0.63,1.81,1.28,2.6,1.97c15.15,13.22,30.68,27.02,46.57,41.4c0.24,0.22,0.51,0.27,0.82,0.16l46.14-17.29
	c0.45-0.17,0.78-0.55,0.89-1.02l12.7-54.88c0.12-0.52-0.04-1.07-0.44-1.43l-45.58-41.39c-0.43-0.39-0.29-1.11,0.26-1.3
	c7.6-2.74,15.41-4.11,23.43-4.1c2.81,0,6.2,0.25,10.19,0.75c17.76,2.22,36.24,11.21,47.61,25.58c9.57,12.09,15.26,25.77,17.05,41.06
	c1.22,10.39,0.69,20.83,3.03,31.22c2.56,11.34,8.74,21.61,18.53,30.82c9.1,8.56,18.47,17.33,28.12,26.32
	c0.2,0.19,0.22,0.51,0.04,0.72l-15.52,18.12c-0.28,0.33-0.78,0.36-1.1,0.06l-45.18-42.27C340.3,296.97,339.96,296.99,339.63,297.37z
	"/>
<path class="st1" d="M517.56,217.55L471.92,272c-0.32,0.39-0.91,0.44-1.29,0.1l-10.4-9.02c-0.38-0.33-0.42-0.9-0.1-1.28l45.94-53.92
	c0.33-0.38,0.9-0.43,1.28-0.11l10.1,8.5C517.83,216.59,517.88,217.16,517.56,217.55z"/>
<path class="st1" d="M494.03,291.26c-0.24,0.29-0.66,0.32-0.94,0.08l-10.51-8.88c-0.29-0.24-0.32-0.66-0.08-0.94L528.57,227
	c0.24-0.29,0.66-0.32,0.94-0.08l10.51,8.88c0.29,0.24,0.32,0.66,0.08,0.94L494.03,291.26z"/>
<path class="st1" d="M515.98,311.34c-0.12,0.14-0.33,0.16-0.46,0.04l-11.12-9.3c-0.14-0.12-0.16-0.33-0.04-0.46l46.92-56.11
	c0.12-0.14,0.33-0.16,0.46-0.04l11.12,9.3c0.14,0.12,0.16,0.33,0.04,0.46L515.98,311.34z"/>
<path class="st1" d="M537.87,330.17c-0.24,0.29-0.68,0.32-0.97,0.08l-10.3-8.79c-0.29-0.24-0.32-0.68-0.08-0.97l46.76-54.75
	c0.24-0.29,0.68-0.32,0.97-0.08l10.3,8.79c0.29,0.24,0.32,0.68,0.08,0.97L537.87,330.17z"/>
<path class="st0" d="M710.01,466.98c-0.48,0.1-0.85,0.47-0.97,0.95c-5.9,23.54-13.79,45.96-23.68,67.27
	c-0.19,0.4-0.69,0.52-1.03,0.26L619.7,487.4c-0.35-0.26-0.48-0.72-0.32-1.12c3.06-7.64,6.01-15.5,8.85-23.59
	c2.9-8.26,4.64-16.75,6.48-25.51c1.85-8.82,3.11-16.85,3.78-24.1c0.32-3.49,0.63-7.2,0.93-11.12c0.31-3.92,0.46-7.53,0.45-10.84
	c-0.01-14.45-1.29-28.92-3.84-43.39c-0.11-0.64,0.15-0.98,0.8-1.03c0.46-0.03,0.91-0.14,1.36-0.34c9.01-3.96,17.8-8.14,25.82-13.74
	c11.35-7.91,21.47-16.73,30.4-27.45c3.66-4.39,7.02-8.64,10.09-12.74c0.25-0.33,0.48-0.32,0.7,0.02c0.37,0.57,0.65,1.2,0.82,1.88
	c1.39,5.41,2.67,10.77,3.84,16.08c0.09,0.43,0.36,0.7,0.79,0.8c18.55,4.37,36.67,8.53,54.35,12.47c4.17,0.93,7.11,2.09,8.82,3.48
	c3.45,2.81,5.17,6.7,5.18,11.65c0.01,33.52,0,67.14-0.05,100.87c-0.01,7.8-3.5,12.5-10.46,14.09
	C748.8,458.29,729.3,462.69,710.01,466.98z"/>
<path class="st1" d="M466.58,341.33c-8.67-0.66-13.08,4.83-18.16,10.79c-8.47,9.95-16.57,19.82-24.7,29.06
	c-11.43,12.98-23.07,26.2-34.92,39.65c-0.53,0.61-1.33,0.91-2.13,0.82c-0.32-0.04-0.62-0.13-0.9-0.28
	c-0.67-0.35-0.79-0.84-0.34-1.45c15.18-20.93,32.16-43.67,50.94-68.21c4.87-6.35,9.4-11.91,13.61-16.69
	c8.76-9.92,24.57-10.53,33.18-0.15c3.7,4.45,5.24,9.16,4.61,14.14c-1.15,9.16-7.21,15.2-14.96,19.36c-3.15,1.69-3.5,1.24-1.05-1.37
	c5.59-5.93,9.81-15.93,2.36-22.57C472.05,342.58,469.53,341.55,466.58,341.33z"/>
<path class="st0" d="M568.2,662.47c-2.94,1.84-6.17,3.69-9.69,5.56c-0.29,0.15-0.56,0.11-0.79-0.13c-1.41-1.48-2.8-3.12-4.16-4.93
	c-26.43-34.97-52.49-69.58-78.18-103.85c-14.19-18.93-28.73-38.24-43.6-57.95c-0.25-0.34-0.23-0.8,0.03-1.12l64.29-78.18
	c0.32-0.39,0.68-0.44,1.09-0.13c17.99,13.54,36.27,27.36,54.84,41.45c40.49,30.74,80.85,61.22,121.08,91.43
	c9.18,6.9,18.78,14.13,28.81,21.7c6.16,4.64,10.67,8.31,13.53,11.01c5.23,4.93,6.02,10.76,2.36,17.5
	c-2.08,3.82-5.18,7.58-7.86,11.27c-19.25,26.53-40.8,51.26-64.65,74.21c-2.51,2.41-5.08,4.61-7.71,6.61
	c-2.8,2.13-6.13,3.11-9.99,2.92c-2.26-0.11-4.17-0.69-5.72-1.73c-8.68-5.82-17.16-11.31-25.54-17.18
	c-8.73-6.12-17.83-12.27-27.29-18.45C568.79,662.31,568.46,662.31,568.2,662.47z M514.76,487.61c0-11.54-9.35-20.89-20.89-20.89
	c-11.54,0-20.89,9.35-20.89,20.89c0,11.54,9.35,20.89,20.89,20.89C505.41,508.5,514.76,499.15,514.76,487.61z M561.7,523.85
	c-6.09-13.98-22.47-20.34-36.6-14.2c-14.13,6.15-20.66,22.47-14.57,36.45c6.09,13.98,22.47,20.34,36.6,14.2
	C561.25,554.16,567.78,537.84,561.7,523.85z M598.01,577.4c-2.33-10.44-12.78-16.99-23.32-14.63c-10.54,2.35-17.2,12.73-14.87,23.17
	c2.33,10.44,12.78,16.99,23.32,14.63C593.68,598.22,600.34,587.84,598.01,577.4z"/>
<path class="st1" d="M514.76,487.61c0,11.54-9.35,20.89-20.89,20.89c-11.54,0-20.89-9.35-20.89-20.89
	c0-11.54,9.35-20.89,20.89-20.89C505.41,466.72,514.76,476.07,514.76,487.61z"/>
<path class="st1" d="M561.7,523.85c6.08,13.99-0.45,30.31-14.57,36.45c-14.13,6.14-30.51-0.22-36.6-14.2
	c-6.08-13.99,0.45-30.31,14.57-36.45C539.23,503.51,555.61,509.87,561.7,523.85z"/>
<path class="st1" d="M598.01,577.4c2.33,10.44-4.33,20.82-14.87,23.17c-10.55,2.36-21-4.19-23.32-14.63
	c-2.33-10.44,4.33-20.82,14.87-23.17C585.23,560.41,595.68,566.96,598.01,577.4z"/>
<path class="st0" d="M308.99,710.04c-0.1-0.77-0.66-1.39-1.41-1.58c-11.87-2.91-23.48-6.4-34.83-10.47
	c-0.41-0.15-0.55-0.67-0.27-1.01c1.23-1.5,2.15-3.18,3.36-4.68c16.44-20.33,32.39-40.72,48.93-61.29c0.35-0.43,0.92-0.62,1.45-0.47
	c17.69,4.86,36.02,7.79,55,8.79c6.36,0.33,12.82,0.25,19.37-0.24c31.32-2.34,62.37-8.61,91.62-20.95c0.45-0.19,0.97-0.04,1.26,0.35
	c12.77,17.63,25.06,34.41,36.87,50.34c3.43,4.64,6.68,9.22,9.75,13.75c0.2,0.3,0.14,0.52-0.18,0.67
	c-22.79,10.49-46.32,19.04-70.61,25.63c-0.52,0.14-0.92,0.55-1.04,1.07c-4.23,17.66-8.5,35.29-12.81,52.88
	c-2.34,9.52-7.36,13.11-16.81,13.11c-34.75,0.01-68.73,0.06-101.96,0.13c-1.99,0.01-4.07-0.43-6.22-1.3
	c-4.48-1.81-7.25-5.12-8.38-9.88c-3.2-13.49-6.59-27.72-10.16-42.71C310.94,718.11,309.52,714.28,308.99,710.04z"/>
<path class="st1" d="M122.44,701.39c-1.12-19.66,8-39.45,25.47-48.78c8.25-4.41,16.42-6.22,24.49-5.44
	c1.37,0.13,1.93,1.08,1.68,2.83c-0.05,0.37-0.25,0.58-0.61,0.64c-13.05,2.37-23.99,6.11-33.21,16.2
	c-8.51,9.33-13.02,20.97-13.53,34.94c-0.03,0.94-0.52,1.35-1.45,1.24l-1.47-0.17C122.95,702.74,122.49,702.26,122.44,701.39z"/>
<path class="st1" d="M212.52,698.59c0,19.71-15.98,35.69-35.69,35.69s-35.69-15.98-35.69-35.69c0-19.71,15.98-35.69,35.69-35.69
	S212.52,678.88,212.52,698.59z"/>
</svg>
